<svg xmlns="http://www.w3.org/2000/svg" width="150" height="108" viewBox="0 0 150 108"><defs><style>.a{fill:#18c6d2;}.b{fill:none;font-size:20px;font-family:SegoeUI, Segoe UI;}.c{fill:#fff;}</style></defs><path class="a" d="M0,0H150V108H0Z"/><text class="b" transform="translate(0 72)"><tspan x="37.905" y="22">Zoom In</tspan></text><g transform="translate(-925.543 -1453.933)"><path class="c" d="M1025.538,1489.074l-.1-.728c-.067-.495-.134-.989-.215-1.482a24.976,24.976,0,0,0-17.925-20,27.073,27.073,0,0,0-2.68-.553c-.416-.071-.831-.141-1.242-.222-.117-.024-.233-.056-.351-.087l-.186-.05-4.455-.02-.729.127c-.353.067-.706.132-1.061.187a25.024,25.024,0,0,0-20.641,20.14c-.06.341-.107.684-.154,1.028-.033.246-.067.49-.107.738a1.788,1.788,0,0,1-.071.269l-.082.283.015,4.457.081.4c.052.255.105.51.139.766a25.107,25.107,0,0,0,20.156,21.166,26.016,26.016,0,0,0,4.706.434,24.78,24.78,0,0,0,24.452-20.142c.122-.6.2-1.21.265-1.746.034-.27.068-.539.107-.808.008-.053.019-.107.037-.187l.042-.231Zm-4.047,1.855a20.931,20.931,0,1,1-35.767-14.758,20.573,20.573,0,0,1,14.674-6.159A21.056,21.056,0,0,1,1021.491,1490.929Z"/><path class="c" d="M1006.448,1495.342a1.172,1.172,0,0,0,.611-2.171l-4.331-2.739a1.658,1.658,0,0,0-.524-.951l0-2.549v-4.863a1.508,1.508,0,0,0-.027-.321,1.158,1.158,0,0,0-1.041-.937,1.181,1.181,0,0,0-.9.3,1.2,1.2,0,0,0-.384.888c0,.228,0,.458.005.684l.005.536c0,.178,0,.354-.006.532s-.006.369-.006.554v5.181a1.729,1.729,0,0,0-.383,2,1.709,1.709,0,0,0,2,.923q1.23.788,2.466,1.565l1.867,1.179A1.22,1.22,0,0,0,1006.448,1495.342Z"/><path class="c" d="M999.34,1476.525a1.473,1.473,0,0,0,1.457,1.155c.041,0,.083,0,.125-.006a1.469,1.469,0,0,0,1.344-1.408c.009-.2.007-.405.005-.607l0-.236,0-.227c0-.177,0-.352,0-.532v0a1.483,1.483,0,1,0-2.966.042v1.449A1.739,1.739,0,0,0,999.34,1476.525Z"/><path class="c" d="M1009.316,1474.933a1.5,1.5,0,0,0-2.068.584c-.254.437-.507.876-.752,1.305a1.586,1.586,0,0,0-.163.356,1.5,1.5,0,0,0,.811,1.823,1.458,1.458,0,0,0,.632.143,1.506,1.506,0,0,0,1.273-.7c.111-.174.212-.354.311-.53l.277-.476c.085-.146.169-.291.249-.438A1.5,1.5,0,0,0,1009.316,1474.933Z"/><path class="c" d="M1014.012,1481.261c-.439.251-.878.505-1.305.754a1.548,1.548,0,0,0-.319.226,1.513,1.513,0,0,0,1.018,2.625,1.527,1.527,0,0,0,.7-.172c.187-.1.37-.2.548-.31l.406-.233c.167-.095.333-.191.495-.29a1.512,1.512,0,1,0-1.543-2.6Z"/><path class="c" d="M1015.1,1489.651a1.511,1.511,0,0,0,.262,2.984c.122.006.244.007.367.007l.515,0,.239,0c.185,0,.367,0,.553,0a1.513,1.513,0,1,0-.038-3.025h-1.517A1.75,1.75,0,0,0,1015.1,1489.651Z"/><path class="c" d="M1015.4,1498.338l-1.313-.756a1.65,1.65,0,0,0-.349-.159,1.511,1.511,0,0,0-1.264,2.716c.177.113.359.215.538.315l.431.25c.158.093.316.186.478.273a1.632,1.632,0,0,0,.769.2,1.481,1.481,0,0,0,1.295-.769A1.5,1.5,0,0,0,1015.4,1498.338Z"/><path class="c" d="M1008.888,1503.782h0a1.605,1.605,0,0,0-.22-.306,1.511,1.511,0,0,0-2.453,1.719c.092.176.193.348.313.553l.238.411c.092.162.185.325.282.484a1.5,1.5,0,0,0,2.075.537,1.5,1.5,0,0,0,.525-2.084Z"/><path class="c" d="M999.633,1505.011a1.494,1.494,0,0,0-1.365,1.43c-.009.2-.007.4-.005.635v.537c0,.168,0,.335,0,.5a1.513,1.513,0,1,0,3.025-.036v-1.515a1.755,1.755,0,0,0-.037-.381A1.486,1.486,0,0,0,999.633,1505.011Z"/><path class="c" d="M992.663,1503a1.5,1.5,0,0,0-1.9.557c-.113.176-.216.359-.317.538l-.251.433c-.093.158-.186.316-.272.477a1.5,1.5,0,0,0,.569,2.063,1.5,1.5,0,0,0,2.071-.586l.755-1.311a1.6,1.6,0,0,0,.159-.348A1.5,1.5,0,0,0,992.663,1503Z"/><path class="c" d="M985.7,1497.3h0c-.179.093-.354.2-.542.307l-.452.26c-.152.087-.306.174-.456.266a1.5,1.5,0,0,0-.537,2.075,1.482,1.482,0,0,0,1.283.742h0a1.63,1.63,0,0,0,.8-.216l1.315-.761a1.565,1.565,0,0,0,.306-.22,1.511,1.511,0,0,0-1.718-2.454Z"/><path class="c" d="M985.766,1492.411h0a1.685,1.685,0,0,0,.362-.037,1.481,1.481,0,0,0-.259-2.925c-.2-.008-.406-.006-.608,0h-.45c-.181,0-.363,0-.545,0a1.482,1.482,0,1,0,.038,2.964Z"/><path class="c" d="M988.652,1482.272c-.159-.1-.323-.195-.505-.3l-.459-.265c-.14-.082-.281-.164-.42-.238a1.482,1.482,0,1,0-1.45,2.585l1.257.725a1.7,1.7,0,0,0,.341.153,1.48,1.48,0,0,0,1.784-.793A1.469,1.469,0,0,0,988.652,1482.272Z"/><path class="c" d="M994.362,1476.93l-.232-.4c-.09-.159-.18-.317-.275-.469a1.482,1.482,0,1,0-2.548,1.513c.24.421.483.84.724,1.253a1.62,1.62,0,0,0,.22.308,1.474,1.474,0,0,0,1.082.476,1.514,1.514,0,0,0,.862-.273,1.468,1.468,0,0,0,.46-1.889C994.564,1477.272,994.463,1477.1,994.362,1476.93Z"/></g></svg>